Coordinates
version=1
nRows=38
nColumns=12
inDegrees=yes

Units are S.I. units (second, meters, Newtons, ...)
Angles are in degrees

endheader
time	SC_y	SC_z	SC_x	AC_y	AC_z	AC_x	GH_y	GH_z	GH_yy	EL_x	PS_y
       0.0              -27.11          33.62          29.05          64.11          6.144         -6.065         -75.28          62.48          158.6          90.61          148.0
    0.0459              -27.11          33.61          29.05           64.1          6.142         -6.062         -75.28          62.48          158.6          90.61          148.0
    0.0918              -27.11          33.61          29.06           64.1           6.14         -6.059         -75.28          62.47          158.6          90.61          148.0
    0.1377              -27.12           33.6          29.06           64.1          6.138         -6.056         -75.28          62.45          158.5          90.61          147.9
    0.1836              -27.12          33.59          29.07          64.09          6.136         -6.053         -75.29          62.44          158.5          90.61          147.9
    0.2295              -27.12          33.59          29.07          64.09          6.134          -6.05         -75.29          62.43          158.5          90.61          147.9
    0.2754              -27.13          33.58          29.08          64.08          6.131         -6.046         -75.29          62.42          158.5          90.61          147.9
    0.3213              -27.13          33.57          29.08          64.08          6.129         -6.042         -75.29           62.4          158.4          90.61          147.9
    0.3672              -27.14          33.56          29.09          64.07          6.126         -6.038          -75.3          62.39          158.4          90.61          147.9
    0.4131              -27.14          33.55           29.1          64.06          6.123         -6.034          -75.3          62.37          158.4           90.6          147.8
     0.459              -27.15          33.55           29.1          64.06          6.119         -6.029         -75.31          62.36          158.3           90.6          147.8
    0.5049              -27.15          33.53          29.11          64.05          6.116         -6.024         -75.31          62.34          158.3           90.6          147.8
    0.5508              -27.16          33.52          29.12          64.04          6.112         -6.019         -75.31          62.32          158.2           90.6          147.7
    0.5967              -27.17          33.51          29.13          64.03          6.108         -6.013         -75.32           62.3          158.2           90.6          147.7
    0.6426              -27.17           33.5          29.14          64.02          6.103         -6.006         -75.32          62.28          158.1           90.6          147.7
    0.6885              -27.18          33.48          29.15          64.01          6.098         -5.999         -75.33          62.25          158.1           90.6          147.6
    0.7344              -27.19          33.47          29.16           64.0          6.093         -5.992         -75.34          62.22          158.0           90.6          147.6
    0.7803               -27.2          33.45          29.17          63.99          6.087         -5.983         -75.34          62.19          157.9          90.59          147.5
    0.8262              -27.21          33.43          29.18          63.98          6.081         -5.974         -75.35          62.16          157.8          90.59          147.5
    0.8721              -27.22          33.41           29.2          63.96          6.074         -5.964         -75.36          62.13          157.8          90.59          147.4
     0.918              -27.23          33.39          29.21          63.95          6.066         -5.954         -75.37          62.09          157.7          90.59          147.4
    0.9639              -27.25          33.37          29.23          63.93          6.058         -5.942         -75.38          62.05          157.6          90.59          147.3
      1.01              -27.26          33.34          29.25          63.91          6.049         -5.928         -75.39           62.0          157.4          90.58          147.2
     1.056              -27.28          33.31          29.27          63.89          6.039         -5.914          -75.4          61.95          157.3          90.58          147.2
     1.102               -27.3          33.28           29.3          63.86          6.027         -5.897         -75.41          61.89          157.2          90.58          147.1
     1.147              -27.32          33.24          29.32          63.84          6.015         -5.879         -75.43          61.82          157.0          90.58          147.0
     1.193              -27.34           33.2          29.35          63.81            6.0         -5.859         -75.44          61.75          156.8          90.57          146.9
     1.239              -27.37          33.15          29.39          63.78          5.984         -5.836         -75.46          61.67          156.6          90.57          146.7
     1.285              -27.39           33.1          29.42          63.74          5.966          -5.81         -75.48          61.58          156.4          90.56          146.6
     1.331              -27.43          33.04          29.47          63.69          5.946         -5.781         -75.51          61.47          156.2          90.56          146.4
     1.377              -27.47          32.97          29.52          63.65          5.922         -5.748         -75.53          61.35          155.9          90.55          146.3
     1.423              -27.51          32.89          29.57          63.59          5.895         -5.709         -75.56          61.22          155.5          90.54          146.0
     1.469              -27.56           32.8          29.64          63.53          5.864         -5.665          -75.6          61.06          155.2          90.53          145.8
     1.515              -27.62           32.7          29.71          63.45          5.828         -5.613         -75.64          60.88          154.7          90.52          145.5
     1.561              -27.69          32.57           29.8          63.36          5.786         -5.553         -75.69          60.66          154.2          90.51          145.2
     1.606              -27.77          32.43          29.91          63.26          5.736         -5.482         -75.75          60.41          153.6           90.5          144.8
     1.652              -27.86          32.25          30.03          63.13          5.677         -5.397         -75.82          60.11          152.8          90.48          144.3
     1.698              -27.98          32.05          30.18          62.99          5.607         -5.296          -75.9          59.75          152.0          90.46          143.8
